<svg xmlns="http://www.w3.org/2000/svg" viewBox="0 0 32 32" id="dominos-pizza"><path fill="#E3F8FA" d="M26 32H6a6 6 0 0 1-6-6V6a6 6 0 0 1 6-6h20a6 6 0 0 1 6 6v20a6 6 0 0 1-6 6z"></path><path fill="#26C6DA" d="m23.593 12.115-3.658-3.704a1.376 1.376 0 0 0-1.963 0l-4.443 4.502 5.621 5.692 4.444-4.502a1.418 1.418 0 0 0-.001-1.988zm-3.644 1.972a1.376 1.376 0 0 1-1.96 0 1.416 1.416 0 0 1 0-1.986 1.373 1.373 0 0 1 1.96 0c.27.273.406.633.406.993 0 .359-.136.72-.406.993z"></path><path fill="#8CE1EB" d="M8.407 18.096a1.419 1.419 0 0 0 0 1.988l3.68 3.53a1.376 1.376 0 0 0 1.914-.005l4.468-4.321-5.621-5.692-4.441 4.5zm3.58 1.967a1.378 1.378 0 0 1-1.962 0 1.403 1.403 0 0 1-.405-.992c0-.359.135-.719.405-.994a1.377 1.377 0 0 1 1.961 0c.271.275.405.634.405.993.001.359-.133.719-.404.993zm2.108-1.929a1.37 1.37 0 0 1 1.959 0c.271.273.407.633.407.993 0 .359-.135.718-.407.992a1.375 1.375 0 0 1-1.959 0 1.408 1.408 0 0 1-.406-.992 1.404 1.404 0 0 1 .406-.993z"></path></svg>